<?xml version="1.0" encoding="UTF-8"?>
<svg id="_Слой_1" data-name="Слой 1" xmlns="http://www.w3.org/2000/svg" xmlns:xlink="http://www.w3.org/1999/xlink" viewBox="0 0 859.15 853.51">
  <defs>
    <style>
      .cls-1 {
        fill: url(#_Безымянный_градиент_834-2);
      }

      .cls-1, .cls-2, .cls-3, .cls-4, .cls-5, .cls-6, .cls-7 {
        stroke-miterlimit: 10;
        stroke-width: 9px;
      }

      .cls-1, .cls-2, .cls-3, .cls-4, .cls-6, .cls-7 {
        stroke: #009245;
      }

      .cls-2 {
        fill: url(#_Безымянный_градиент_834-4);
      }

      .cls-3 {
        fill: url(#_Безымянный_градиент_834);
      }

      .cls-4 {
        fill: url(#_Безымянный_градиент_834-5);
      }

      .cls-8 {
        fill: #fff;
      }

      .cls-9 {
        fill: #009245;
      }

      .cls-5 {
        fill: none;
        stroke: #fbae17;
      }

      .cls-6 {
        fill: url(#_Безымянный_градиент_834-3);
      }

      .cls-7 {
        fill: url(#_Безымянный_градиент_834-6);
      }

      .cls-10 {
        fill: url(#_Безымянный_градиент_834-7);
      }
    </style>
    <linearGradient id="_Безымянный_градиент_834" data-name="Безымянный градиент 834" x1="721.41" y1="190.69" x2="721.41" y2="23.99" gradientUnits="userSpaceOnUse">
      <stop offset="0" stop-color="#007fc9"/>
      <stop offset="1" stop-color="#00c56d"/>
    </linearGradient>
    <linearGradient id="_Безымянный_градиент_834-2" data-name="Безымянный градиент 834" x1="503.7" y1="849.01" x2="503.7" y2="147.11" xlink:href="#_Безымянный_градиент_834"/>
    <linearGradient id="_Безымянный_градиент_834-3" data-name="Безымянный градиент 834" x1="101.14" y1="721.89" x2="101.14" y2="522.67" xlink:href="#_Безымянный_градиент_834"/>
    <linearGradient id="_Безымянный_градиент_834-4" data-name="Безымянный градиент 834" x1="43.9" y1="703.87" x2="43.9" y2="662.34" xlink:href="#_Безымянный_градиент_834"/>
    <linearGradient id="_Безымянный_градиент_834-5" data-name="Безымянный градиент 834" x1="52.81" y1="746.74" x2="52.81" y2="649.72" xlink:href="#_Безымянный_градиент_834"/>
    <linearGradient id="_Безымянный_градиент_834-6" data-name="Безымянный градиент 834" x1="260.81" y1="838.51" x2="260.81" y2="226.34" xlink:href="#_Безымянный_градиент_834"/>
    <linearGradient id="_Безымянный_градиент_834-7" data-name="Безымянный градиент 834" x1="368.83" y1="252.41" x2="368.83" y2="4.5" xlink:href="#_Безымянный_градиент_834"/>
  </defs>
  <rect class="cls-8" x="215.7" y="495.51" width="455.24" height="31.22"/>
  <path class="cls-3" d="M668.9,190.69c4.53-22.37,11.64-47.5,22.87-74.02,3.48-8.22,7.12-16,10.83-23.35,10.88,1.75,22.43,4.13,34.5,7.31,31.73,8.36,58.43,20.02,79.84,31.52,2.91-5.78,5.82-11.55,8.73-17.33-69.51-30.28-139.02-60.55-208.53-90.83v23.07c14.39,3.71,32.72,10.25,51.76,22.27,7.82,4.93,14.61,10.07,20.46,15.05-2.43,8.55-4.97,17.18-7.62,25.88-8.56,28.06-17.73,54.88-27.28,80.44h14.44Z"/>
  <path class="cls-1" d="M503.7,147.11c-193.82,0-350.95,157.13-350.95,350.95s157.13,350.95,350.95,350.95,350.95-157.13,350.95-350.95-157.13-350.95-350.95-350.95ZM296.62,382.11c1.54,4.37-5.4,6.23-6.92,1.91-6.5-18.5-1.95-37.47,7.98-53.84,9.23-15.21,21.94-28.11,34.96-40.09,15.11-13.91,29.87-28.45,45.74-41.49,16.39-13.47,35.47-22.62,52.56-35.06,8.06-5.87,14.31-13.31,21.92-19.6,6.14-5.07,12.93-7.58,20.85-5.82,4.51,1.01,2.59,7.92-1.91,6.92-9.8-2.19-16.35,6.23-22.52,12.41-7.39,7.42-16.12,13.56-24.91,19.19-8.24,5.27-16.76,10.08-25.02,15.33-8.58,5.46-16.47,11.95-24.08,18.69-13.8,12.22-27.35,24.86-40.78,37.49-22.39,21.04-49.56,50.73-37.88,83.96ZM341.71,351.18c-1.59,4.3-8.52,2.43-6.92-1.91,5.12-13.87,14.2-25.37,24.93-35.38,9.92-9.26,20.9-17.26,31.4-25.81,11.02-8.98,20.88-19.21,31.2-28.97,20.9-19.75,43.73-37.28,72.16-44.22,4.49-1.1,6.39,5.83,1.91,6.92-15.66,3.82-29.94,10.89-43,20.28-22,15.82-39.43,36.88-60.54,53.75-19.46,15.55-42.16,30.98-51.14,55.33ZM391.43,337.33c-2.97,3.54-8.02-1.56-5.07-5.07,31.04-37.04,69.88-65.8,106.81-96.53,3.53-2.93,8.63,2.12,5.07,5.07-36.94,30.73-75.77,59.49-106.81,96.53ZM469.37,736.11c29.97-12.27,61.96-18.6,91.97-30.76,13.51-5.47,25.99-12.92,38.49-20.36,12.64-7.53,25.06-15.42,37.25-23.65,15.61-10.53,31.26-21.09,46.36-32.33,16.76-12.47,33.14-26.07,46.41-42.3,11.56-14.15,20.84-31.3,19.34-50.08-.37-4.61,6.81-4.57,7.17,0,1.72,21.58-9.6,41.19-23.08,57.12-13.96,16.5-30.99,30.25-48.33,43.02-16.46,12.11-33.44,23.66-50.48,34.93-24.73,16.35-50.26,32.83-78.12,43.25-28,10.47-57.38,16.74-85.07,28.08-4.28,1.75-6.12-5.19-1.91-6.92ZM489.54,781.21c28.8-9.64,57.06-20.79,84.79-33.17,24.23-10.82,48.06-22.52,71.54-34.89,21.92-11.55,43.97-23.09,63.93-37.85,19.22-14.21,37.26-31.12,50.35-51.25,6.81-10.47,11.08-21.48,12.73-33.9,1.68-12.61,1.26-25.41,1.24-38.09,0-4.62,7.17-4.62,7.17,0,.02,14.32.41,28.72-1.92,42.91-2.28,13.88-8.14,25.98-16.21,37.39-29.46,41.71-74.47,66.55-118.71,89.62-49.3,25.71-100.24,48.49-153.01,66.15-4.4,1.47-6.26-5.46-1.91-6.92ZM660.44,771.37c-52.29,27.98-109.6,47.23-167.81,58.3-4.52.86-6.44-6.06-1.91-6.92,31-5.9,61.54-14.21,91.28-24.76,55.93-19.85,110.92-47.84,154.62-88.58,20.79-19.38,38.84-41.84,51.48-67.39,12.94-26.14,19.37-54.88,19.25-84.02-.02-4.63,7.16-4.62,7.17,0,.14,33.22-8.09,65.78-24.02,94.93-28.64,52.42-78.22,90.72-130.06,118.45Z"/>
  <path class="cls-6" d="M21.38,639.3c9.83-7.02,19.46-10.18,25.88-11.7,7.23-3.08,29.93-11.64,54.24-2.48,7.01,2.64,12.66,6.19,17.02,9.59,8.69,10.04,18.77,23.44,28,40.4,9.54,17.51,15.42,33.75,19.14,46.79,9.69-.47,19.38-.95,29.07-1.42l4.25-32.61-62.39-90.04,2.84-75.15c-7.25.63-15.97,2.02-25.52,4.96-5.56,1.71-10.53,3.68-14.89,5.67-28.89,15.76-63.33,39.22-95.71,74.09"/>
  <path class="cls-2" d="M31.3,662.34c1.45,4.27,5.76,5.47,6.09,5.55,2.35-.2,7.69-.33,13.41,2.6,4.15,2.13,6.77,4.97,8.15,6.74.74,2.21,2.2,7.57-.35,12.41-1.01,1.92-2.81,4.05-10.99,7.8-9.89,4.54-14.84,6.81-19.85,6.38"/>
  <path class="cls-4" d="M13.93,744.58c6.09,1.29,13.92,2.36,23.04,2.13,6.94-.17,13.04-1.06,18.08-2.13,4.29-1.21,17.05-5.41,26.23-18.08,5.93-8.18,7.82-16.37,8.51-20.91,1.7-7.52,2.91-17.92.71-29.78-.57-3.06-1.3-5.9-2.13-8.51-2.44-2.69-5.69-5.73-9.93-8.51-9.96-6.54-19.91-8.1-25.52-8.51-2.48-.5-6.53-.98-11.34,0-3.31.68-5.94,1.83-7.8,2.84"/>
  <path class="cls-7" d="M206.73,247.91c-14.81,15.61-36.95,43.35-60.26,92.15,0,0-.79,1.65-1.56,3.31-.38.82-35.96,87.95-38.14,157.63-2.17,69.28,27.04,173.21,104.97,268.7,43.58,20.46,123.91,56.04,182.1,66.52,4.39.79,20.46,3.69,21.11,1.46,1.15-3.95-47.74-17.81-87.04-38.38-30.33-15.87-71.56-44.44-111.96-99.79-59.81-81.95-61.93-169.7-62.39-194.26-2.95-156.93,103.43-260.58,122.92-278.92-23.25,7.19-46.5,14.38-69.74,21.58Z"/>
  <path class="cls-5" d="M238.7,184.04c1.97.74,4.3.46,6.04-.74s2.83-3.27,2.84-5.38c-2.26-.78-4.89-.39-6.84.99s-3.16,3.75-3.17,6.14c3.9.7,8.1-2.1,8.96-5.97-2.98.86-6.23,2.14-7.84,4.96Z"/>
  <g>
    <path class="cls-10" d="M203.28,252.41c-3.91,0-5.38-1.9-5.94-3.48-1.45-4.19,2.58-6.26,4.98-7.49,3.01-1.55,7.56-3.88,11.59-8.41,2.72-3.06,4.67-6.51,5.9-9.4-8.68,6.55-18.3,13.19-28.62,19.74l-2.37,1.51-28.9-17.75-.57-1.18c-6.79-13.94-10.26-29.48-10.03-44.93.13-8.71,1.38-21.33,9.92-41.73,8.58-20.49,26.45-63.13,73.13-90.42,18.85-11.02,39.83-18.01,62.34-20.79,12.28-1.36,24.63-2.04,36.77-2.04,10.92,0,21.93.56,32.7,1.65,23.83,2.43,41.99,6.98,61.21,11.8,18.43,4.62,36.91,10.25,53.43,16.27,12.35,4.5,24.65,9.53,36.6,14.95,7.5-8.07,13.41-17.02,17.61-26.64,4.72-10.83,6.22-19.97,7.32-26.64,1.13-6.86,2.02-12.29,7.27-12.9.24-.03.48-.04.72-.04,5.17,0,10.21,6.58,14.99,19.56,4.38,11.9,7.15,26.17,7.61,39.17.27,7.55-.28,12.74-.72,16.92-.63,5.95-.97,9.23,1.28,15.2,2.01,5.32,4.63,8.89,7.42,12.67,3.96,5.38,8.06,10.94,9.15,20.67.47,4.23,1.37,18.35-7.05,22.6-1.34.68-2.8,1.02-4.33,1.02h0c-2.5,0-4.9-.88-7.94-1.98-1.34-.49-2.87-1.05-4.61-1.6-5.91-1.9-12.03-3.1-18.21-3.57-27.15.29-53.87,1.68-79.42,4.12-21.1,2.02-41.43,4.74-58.78,7.88-5.25.95-10.53,1.97-15.71,3.04l-6.25,1.29.88-6.32c1.11-7.96,1.55-16.89-3.58-22.86-2.38-2.77-6.44-4.01-13.14-4.01-2.1,0-4.22.12-6.27.23-.92.05-1.81.1-2.67.13-13.24.57-24.43,3.06-34.21,7.64-3.97,1.86-7.81,4.8-11.74,9-.9.96-1.78,1.95-2.66,2.95-2.64,2.99-5.38,6.08-8.82,8.6-.29.21-1.72,1.35-1,2.59.24.41,1.06.9,1.72.9.14,0,.21-.02.22-.03,3.21-2.35,6.3-5.24,10.01-9.37l.89-.99c2.63-2.94,5.34-5.99,8.88-8.35,7.41-4.94,17.6-8.01,30.28-9.12,4.2-.37,8.79-.55,14.04-.55.57,0,2.08,0,2.08,0,1.41,0,2.86.02,4.39.18l3.19.33.07.31.19.03.9.75,1.02.57.59,1.07s-.05-.09-.1-.15l-3.56,2.63,3.67,2.2c.9-1.51.73-3.24.17-4.29.07.14.21.37.35.6.39.67.56.96.71,1.31.79,1.86,1.31,4.2,1.54,5.77.73,5.02-.15,10.1-.92,14.59l-.28,1.64c-.03.17-.05.36-.05.56l-.07,3.05-2.86,1.07c-1.78.67-3.41,1.31-4.98,1.98-7.14,3.02-14.05,6.73-20.54,11.02-4.81,3.19-9.2,6.07-12.99,8.56-6.54,4.3-11.31,7.44-13.3,8.86-30.33,26.49-63.45,39.33-87.64,48.7-6.92,2.68-11.19,3.82-17.09,5.38-3.36.89-14.72,3.8-19.81,3.8ZM243.42,169.68c-7.89,0-9.99,6.61-9.99,10.51s2.1,10.49,9.99,10.49,9.99-6.61,9.99-10.51-2.1-10.49-9.99-10.49Z"/>
    <path class="cls-9" d="M548.35,9c5.57,0,17.1,26.17,18.1,54.38.64,18.01-3.55,21.89.84,33.54,5.25,13.93,14.64,17.43,16.31,32.26.1.86,1.55,14.97-4.61,18.08-.74.37-1.49.54-2.3.54-2.56,0-5.73-1.63-11.17-3.37-8.04-2.58-14.93-3.45-19.44-3.79-32.96.35-60.05,2.24-79.99,4.14-31.14,2.97-52.41,6.71-59.16,7.93-6.5,1.18-11.93,2.26-15.82,3.06,1.27-9.15,1.58-19.2-4.63-26.41-3.99-4.64-10.33-5.58-16.55-5.58-3.19,0-6.34.25-9.14.37-12.44.53-24.6,2.76-35.92,8.06-5.06,2.36-9.33,5.95-13.12,10-3.5,3.74-6.69,7.95-10.85,10.99-2.7,1.98-4.04,5.38-2.23,8.49,1.07,1.82,3.38,3.13,5.6,3.13,1.02,0,2.03-.28,2.88-.9,4.01-2.93,7.39-6.31,10.7-10,2.74-3.05,5.48-6.31,8.91-8.6,8.07-5.37,18.66-7.55,28.18-8.39,4.54-.4,9.09-.53,13.64-.53.56,0,1.12,0,1.68,0,1.44,0,2.89,0,4.32.15-.03.03,1.45.29,1.65.35.16.05.26.07.33.08.06.05.14.11.26.2.14.1.23.16.3.19.03.06.09.15.19.29-.08-.12-.13-.17-.14-.17-.05,0,.85,1.47.94,1.68.54,1.28,1.01,3.16,1.23,4.66.71,4.87-.39,10.05-1.19,14.84-.07.4-.1.8-.11,1.2-1.7.63-3.42,1.31-5.16,2.05-8.44,3.57-15.53,7.61-21.27,11.41-13.44,8.9-23.55,15.42-26.62,17.65,0,0,0,0,0,0-29.44,25.76-61.95,38.53-86.47,48.03-6.69,2.59-10.74,3.67-16.62,5.23-6.09,1.62-14.97,3.65-18.65,3.65-.96,0-1.57-.14-1.68-.46-.46-1.32,8.38-3.23,15.69-11.43,7.02-7.88,10.18-18.84,7.98-20.38-.19-.13-.42-.2-.68-.2-1.49,0-4.04,1.99-6.63,3.96-6.64,5.05-16.21,11.95-29.16,20.16-8.46-5.2-16.93-10.4-25.39-15.6-3.71-7.62-9.87-22.85-9.57-42.89.13-8.88,1.59-21.01,9.57-40.06,8.39-20.04,25.86-61.74,71.25-88.27,11.55-6.75,32.03-16.68,60.62-20.21,13.19-1.46,25.33-2.01,36.22-2.01,12.47,0,23.32.72,32.24,1.63,23.51,2.39,41.31,6.86,60.58,11.69,26.24,6.58,45.57,13.44,52.98,16.14,15.58,5.68,28.79,11.35,39.18,16.15,6.3-6.39,14.63-16.36,20.69-30.26,9.12-20.92,6.86-36.38,10.99-36.87.07,0,.13-.01.2-.01M243.42,195.19c19.31,0,19.34-30,0-30s-19.34,30,0,30M548.35,0c-.42,0-.83.02-1.25.07-2.65.31-7.42,1.87-9.59,8.83-.68,2.17-1.09,4.66-1.6,7.81-1.06,6.44-2.5,15.25-7,25.57-3.58,8.21-8.49,15.92-14.63,22.99-11.11-4.96-22.49-9.57-33.91-13.73-16.67-6.08-35.29-11.75-53.87-16.41-19.39-4.86-37.7-9.46-61.85-11.92-10.92-1.11-22.08-1.68-33.16-1.68-12.31,0-24.83.69-37.21,2.06h-.06s-.06.01-.06.01c-23.12,2.85-44.67,10.04-64.06,21.37-47.99,28.04-66.24,71.62-75.01,92.56-8.84,21.11-10.13,34.28-10.27,43.4-.24,16.16,3.38,32.4,10.48,46.97l1.15,2.36,2.23,1.37,25.39,15.6,4.79,2.94,3.73-2.37c.05.93.23,1.82.5,2.6.53,1.53,2.83,6.51,10.19,6.51,5.48,0,16.49-2.76,20.96-3.95,6.04-1.6,10.4-2.76,17.56-5.54,24.46-9.48,57.92-22.45,88.81-49.36,2.02-1.44,6.89-4.64,12.98-8.64,3.8-2.49,8.19-5.38,13.01-8.57,6.25-4.14,12.92-7.72,19.8-10.63,1.51-.64,3.08-1.26,4.8-1.9l5.72-2.13v-.35s6.01-1.24,6.01-1.24c5.15-1.06,10.4-2.08,15.6-3.02,17.24-3.12,37.44-5.83,58.41-7.83,25.36-2.42,51.89-3.8,78.84-4.1,5.76.46,11.48,1.58,16.99,3.35,1.66.53,3.14,1.07,4.44,1.55,3.32,1.21,6.19,2.26,9.48,2.26,2.24,0,4.38-.51,6.35-1.5,11.02-5.56,10.05-22.16,9.5-27.12-1.23-10.93-5.89-17.26-10-22.84-2.59-3.52-5.04-6.85-6.83-11.59-1.87-4.97-1.6-7.53-1.01-13.14.45-4.31,1.02-9.68.74-17.55-.65-18.41-5.22-33.32-7.88-40.56-7.42-20.17-14.52-22.5-19.21-22.5h0ZM243.42,186.19c-4.96,0-5.49-4.19-5.49-5.99s.54-6.01,5.49-6.01,5.49,4.19,5.49,5.99-.54,6.01-5.49,6.01h0Z"/>
  </g>
</svg>