<?xml version="1.0" encoding="UTF-8"?>
<svg id="svg446" width="1920" height="1080" version="1.1" viewBox="0 0 508.01 285.76" xmlns="http://www.w3.org/2000/svg">
 <filter id="d" x="-.32024" y="-.32024" width="1.6405" height="1.6405" color-interpolation-filters="sRGB">
  <feFlood id="feFlood404" flood-opacity=".89804" result="flood"/>
  <feComposite id="feComposite406" in="flood" in2="SourceGraphic" operator="out" result="composite1"/>
  <feGaussianBlur id="feGaussianBlur408" in="composite1" result="blur" stdDeviation="5"/>
  <feOffset id="feOffset410" dx="-0" dy="0" result="offset"/>
  <feComposite id="feComposite412" in="offset" in2="SourceGraphic" operator="in" result="composite2"/>
 </filter>
 <filter id="c" x="-.010299" y="-.010299" width="1.0206" height="1.0206" color-interpolation-filters="sRGB">
  <feFlood id="feFlood415" flood-opacity=".89804" result="flood"/>
  <feComposite id="feComposite417" in="flood" in2="SourceGraphic" operator="in" result="composite1"/>
  <feGaussianBlur id="feGaussianBlur419" in="composite1" result="blur" stdDeviation=".00023253779"/>
  <feOffset id="feOffset421" dx="-0" dy="0" result="offset"/>
  <feComposite id="feComposite423" in="SourceGraphic" in2="offset" result="composite2"/>
 </filter>
 <g id="g4527">
  <path id="rect4541" transform="translate(-42.921 -13.494)" d="m42.921 13.494h508.01v285.76h-508.01z" fill="#160d1d" stroke-width="2.9336"/>
  <path id="path1595" d="m386.52 33.16c-74.633-0.25918-129.84 32.154-196.51 40.854-64.213 1.3846-127.85-10.626-190.01-26.149v237.89h508.01v-230.26c-32.838-20.783-76.258-19.804-114.21-22.204-2.449-0.078249-4.8765-0.12083-7.284-0.12919z" fill="#1b1023" stroke-width="2.9576"/>
  <path id="path1663" d="m0 119.27v166.48h508.01v-111.53c-5.2316-0.33402-10.619-0.09052-16.137 0.8315-68.235 10.456-136.25-5.6246-201.49-24.521-47.139-14.293-96.526-17.412-145.2-10.903-47.572 1.7499-100.99-0.38757-145.19-20.365z" fill="#211429" stroke-width="2.9576"/>
  <path id="path1731" d="m7.6933 208.78c-2.5669 0.01674-5.146 0.14146-7.6933 0.39224v76.582h508.01v-62.484c-10.082-2.0689-20.481-2.8976-30.334-2.9684-47.101-3.6795-94.28 0.75701-140.65 9.2178-52.21 7.7581-105.66 19.294-158.28 8.3196-50.085-11.121-100.18-23.285-151.5-27.254-5.8746-1.1231-12.673-1.85-19.558-1.8051z" fill="#261731" stroke-width="2.9576"/>
  <path id="path4622" transform="matrix(.27846 0 0 .27846 -23.735 3.4967)" d="m291.99 101.84-16.354 2.7782 10.584 12.774 5.7698-15.552zm1200 58.995-12.492 0.51963 6.6958 10.558 5.7957-11.077zm-1011.1 9.5686-8.8282 8.8523 12.08 3.218-3.2514-12.07zm323.9 23.948-3.1011 3.9251 4.9495 0.72192-1.8484-4.647zm985.17 7.1783-9.6633 12.098 15.309 2.3198-5.6454-14.418zm-833.12 19.495 0.13362 6.5548 5.6083-3.3943-5.7419-3.1605zm-599.32 98.487-4.4094 2.8765 4.6952 2.381-0.2858-5.2576zm1026.5 12.484 1.364 9.7635 7.7741-6.063-9.1381-3.7005zm-568.81 31.172 1.017 9.0453 7.3231-5.4042-8.3401-3.6411zm-288.35 2.7522-9.2253 3.476 7.6237 6.2523 1.6016-9.7282zm999.85 3.591-8.5999 2.9805 6.8814 5.9572 1.7185-8.9377zm-1189.1 51.237-10.211 10.402 14.114 3.6411-3.9028-14.043zm881.93 33.962-15.307 2.3383 9.6782 12.085 5.6287-14.423zm-24.302 26.999-5.1203 15.461 15.949-3.296-10.829-12.165zm-75.835 12.98-5.2687 10.647 11.855-0.76089-6.5863-9.886zm687.98 26.1-4.3463 4.9087 6.423 1.3084-2.0767-6.217zm-1327 86.636 6.7218 14.835 9.487-13.238-16.209-1.5979zm66.266 87.521-0.45282 9.2884 8.2714-4.2517-7.8186-5.0367zm-170.13 52.715-13.674 6.9519 12.857 8.3661 0.81656-15.318zm1409.5 34.619 0.2115 6.2968 5.3467-3.3312-5.5582-2.9656zm-231.13 14.529-9.1622 1.5997 5.9665 7.1338 3.1957-8.7335zm-820.69 49.235-4.1144 4.7713 6.1892 1.1766-2.0748-5.9479zm491.26 69.076-1.2898 5.1054 5.0664-1.4346-3.7766-3.6708zm490.97 14.83-5.3355 14.381 15.123-2.5703-9.7876-11.81zm-733.24 7.2804 2.1045 5.8626 4.0234-4.7546-6.1279-1.1079zm-522.1 9.448-1.0281 11.398 10.385-4.8066-9.3571-6.5919z" fill="#fff" opacity=".31512" stroke-width="2.5889"/>
  <path id="path4676" transform="matrix(.27846 0 0 .27846 -39.108 -17.892)" d="m1700 163.78-11.231 5.1982 10.118 7.1264 1.1135-12.325zm-567.96 16.203-4.3519 5.1425 6.629 1.197-2.2771-6.3395zm-258.3 24.729-5.4784 1.5515 4.0828 3.9678 1.3956-5.5192zm527.59 73.782 2.2437 6.4323 4.4484-5.1592-6.6921-1.2731zm-881.75 50.228-3.4537 9.4443 9.9045-1.7315-6.4508-7.7128zm-253.62 18.347-5.7828 3.6022 6.011 3.205-0.22826-6.8072zm1525.3 27.68-0.8834 16.563 14.787-7.5161-13.904-9.0472zm-184.37 63.523-8.9432 4.5987 8.4551 5.445 0.4881-10.044zm63.9 88.642-10.259 14.314 17.526 1.7278-7.2674-16.042zm-1429.9 103 2.2474 6.7218 4.699-5.3077-6.9464-1.4141zm751.89 23.434-12.82 0.82213 7.1208 10.69 5.6992-11.512zm-82.165 8.83-17.246 3.5632 11.708 13.154 5.5378-16.717zm-25.729 30.315-6.0852 15.598 16.55-2.5295-10.465-13.069zm943.36 37.137 4.2201 15.184 11.04-11.246-15.26-3.9381zm-1279.7 60.925-1.8577 9.6651 9.2995-3.2217-7.4419-6.4434zm1081.1 3.0306-1.7315 10.519 9.9751-3.7599-8.2436-6.7589zm-314.64 3.7135-7.9206 5.8421 9.0211 3.9381-1.1005-9.7802zm-615.46 32.932-8.405 6.5566 9.8804 4.0012-1.4754-10.558zm1111.2 18.373 0.3099 5.6844 4.7695-3.1104-5.0794-2.574zm-647.91 105.1-6.0648 3.669 6.2096 3.4184-0.1448-7.0874zm-906.86 12.579 6.1057 15.589 10.45-13.082-16.556-2.5072zm1069.4 18.326 2.0006 5.0256 3.3516-4.2443-5.3522-0.7813zm348.72 17.868 3.5187 13.054 9.5445-9.5724-13.063-3.4815zm-1083.5 11.423-6.2671 11.978 13.507-0.5623-7.2396-11.415z" fill="#fff" opacity=".63913" stroke-width="2.5889"/>
 </g>
</svg>
