<?xml version="1.0" encoding="UTF-8" standalone="no"?>
<svg
   width="512"
   height="512"
   version="1.1"
   viewBox="0 0 135.47 135.47"
   id="svg1867"
   sodipodi:docname="refresh_no_thing.svg"
   inkscape:version="1.2.2 (732a01da63, 2022-12-09)"
   inkscape:export-filename="refresh_no_thing.png"
   inkscape:export-xdpi="96"
   inkscape:export-ydpi="96"
   xmlns:inkscape="http://www.inkscape.org/namespaces/inkscape"
   xmlns:sodipodi="http://sodipodi.sourceforge.net/DTD/sodipodi-0.dtd"
   xmlns="http://www.w3.org/2000/svg"
   xmlns:svg="http://www.w3.org/2000/svg">
  <defs
     id="defs1871" />
  <sodipodi:namedview
     id="namedview1869"
     pagecolor="#505050"
     bordercolor="#ffffff"
     borderopacity="1"
     inkscape:showpageshadow="0"
     inkscape:pageopacity="0"
     inkscape:pagecheckerboard="1"
     inkscape:deskcolor="#505050"
     showgrid="false"
     inkscape:zoom="1.6959514"
     inkscape:cx="271.82383"
     inkscape:cy="355.25782"
     inkscape:window-width="1733"
     inkscape:window-height="1368"
     inkscape:window-x="1495"
     inkscape:window-y="174"
     inkscape:window-maximized="0"
     inkscape:current-layer="g1865" />
  <filter
     id="d"
     x="-0.32023911"
     y="-0.32023911"
     width="1.6404782"
     height="1.6404782"
     color-interpolation-filters="sRGB">
    <feFlood
       flood-opacity=".89804"
       result="flood"
       id="feFlood1825" />
    <feComposite
       in="flood"
       in2="SourceGraphic"
       operator="out"
       result="composite1"
       id="feComposite1827" />
    <feGaussianBlur
       in="composite1"
       result="blur"
       stdDeviation="5"
       id="feGaussianBlur1829" />
    <feOffset
       dx="-0"
       dy="0"
       result="offset"
       id="feOffset1831" />
    <feComposite
       in="offset"
       in2="SourceGraphic"
       operator="in"
       result="composite2"
       id="feComposite1833" />
  </filter>
  <filter
     id="c"
     x="-0.01029937"
     y="-0.010299319"
     width="1.0205987"
     height="1.0205986"
     color-interpolation-filters="sRGB">
    <feFlood
       flood-opacity=".89804"
       result="flood"
       id="feFlood1836" />
    <feComposite
       in="flood"
       in2="SourceGraphic"
       operator="in"
       result="composite1"
       id="feComposite1838" />
    <feGaussianBlur
       in="composite1"
       result="blur"
       stdDeviation=".00023253779"
       id="feGaussianBlur1840" />
    <feOffset
       dx="-0"
       dy="0"
       result="offset"
       id="feOffset1842" />
    <feComposite
       in="SourceGraphic"
       in2="offset"
       result="composite2"
       id="feComposite1844" />
  </filter>
  <g
     fill="#fff"
     id="g1865">
    <circle
       style="fill:#160d1d;stroke-width:0.271776;fill-opacity:1"
       id="path3437"
       cx="67.955635"
       cy="67.62468"
       r="45.892117" />
    <path
       d="m67.734 16.326c-1.2704 0-2.3402 0.13157-3.3538 0.75086-0.95125 0.58121-1.4055 1.5103-1.5885 1.911-0.06231 0.01503-0.21537 0.04708-0.54054 0.08372-0.32301 0.03639-0.48091 0.03995-0.54622 0.03927-0.26712-0.34941-0.91751-1.1547-1.9751-1.51-1.126-0.37822-2.1964-0.26874-3.4349 0.01395-1.2385 0.28269-2.2508 0.6502-3.1011 1.4795-0.79942 0.77963-1.0392 1.788-1.1281 2.218-0.05751 0.02815-0.19946 0.09294-0.5054 0.19999-0.31233 0.10929-0.4631 0.14592-0.52452 0.15916-0.33802-0.28111-1.1501-0.91992-2.2603-1.0309-1.1819-0.11819-2.203 0.22498-3.3476 0.77618-1.1446 0.5512-2.0478 1.1344-2.6923 2.1322-0.60429 0.93549-0.61145 1.968-0.60255 2.4092-0.04922 0.0397-0.17294 0.13466-0.45372 0.31109-0.2786 0.17506-0.41662 0.24542-0.47336 0.27234-0.39172-0.19869-1.3273-0.64066-2.435-0.50178-1.1786 0.14777-2.097 0.70912-3.0903 1.5012-0.99323 0.79208-1.745 1.5623-2.1513 2.6784-0.38173 1.0486-0.15829 2.0598-0.05168 2.4862-0.038 0.04844-0.13601 0.16701-0.37155 0.40256-0.22756 0.22756-0.35018 0.32984-0.40256 0.37104-0.42736-0.10678-1.4356-0.33221-2.4831 0.04909-1.1161 0.40631-1.8863 1.1612-2.6784 2.1544-0.79208 0.99324-1.3565 1.9117-1.5043 3.0903-0.13898 1.1084 0.30432 2.0448 0.50281 2.436-0.0271 0.0583-0.09777 0.19727-0.27027 0.47181-0.17315 0.27557-0.26793 0.39916-0.30851 0.44855-0.43881-9e-3 -1.4736-8.63e-4 -2.4117 0.60513-0.99772 0.64449-1.581 1.5503-2.1322 2.6949-0.5512 1.1446-0.89695 2.1631-0.77876 3.345 0.11119 1.1119 0.75312 1.9291 1.0335 2.266-0.01346 0.05989-0.05092 0.20801-0.15968 0.51883-0.10917 0.31198-0.17467 0.45441-0.20309 0.5116-0.43167 0.08932-1.4395 0.32416-2.2174 1.1219-0.8293 0.85035-1.1937 1.8626-1.4764 3.1011-0.28269 1.2385-0.39216 2.309-0.01395 3.4349 0.35525 1.0576 1.1606 1.708 1.51 1.9751 6.72e-4 0.06531-0.0029 0.22321-0.03927 0.54622-0.03636 0.3227-0.06803 0.47729-0.0832 0.54054-0.3993 0.18223-1.3293 0.63869-1.9115 1.5916-0.61928 1.0136-0.75086 2.0803-0.75086 3.3507 0 1.2704 0.13158 2.3397 0.75086 3.3533 0.58222 0.95291 1.5122 1.4069 1.9115 1.589 0.01517 0.06325 0.04684 0.21784 0.0832 0.54054 0.03639 0.32301 0.03995 0.48091 0.03927 0.54622-0.34941 0.26712-1.1547 0.91751-1.51 1.9751-0.37822 1.126-0.26874 2.1964 0.01395 3.4349 0.28269 1.2385 0.6471 2.2508 1.4764 3.1011 0.77771 0.79745 1.7834 1.0329 2.2154 1.1224 0.03073 0.06049 0.09857 0.20649 0.20516 0.51108 0.10788 0.30832 0.14597 0.45922 0.15968 0.52142-0.28044 0.33692-0.92234 1.1516-1.0335 2.2634-0.11819 1.1819 0.22756 2.203 0.77876 3.3476 0.5512 1.1446 1.1344 2.0478 2.1322 2.6923 0.93727 0.60544 1.9707 0.61413 2.4102 0.60513 0.03929 0.04823 0.13369 0.17044 0.31006 0.45114 0.1725 0.27453 0.24317 0.41403 0.27027 0.47232-0.1988 0.39214-0.64164 1.3288-0.50281 2.436 0.14777 1.1786 0.71222 2.0965 1.5043 3.0897 0.79208 0.99323 1.5623 1.7455 2.6784 2.1518 1.048 0.3815 2.0583 0.15837 2.4851 0.0517 0.04807 0.0383 0.16594 0.137 0.40049 0.37155 0.23561 0.23561 0.33361 0.35287 0.37155 0.40049-0.10668 0.42685-0.32982 1.4372 0.05168 2.4851 0.40632 1.1161 1.1581 1.8863 2.1513 2.6784 0.99323 0.79208 1.9117 1.354 3.0903 1.5017 1.106 0.13868 2.039-0.30264 2.4319-0.50178h5.17e-4c0.06066 0.0284 0.2035 0.10063 0.47594 0.27182 0.2807 0.17637 0.40291 0.27076 0.45114 0.31006-9e-3 0.4395-2.46e-4 1.4729 0.60513 2.4102 0.64449 0.99772 1.5478 1.581 2.6923 2.1322 1.1446 0.5512 2.1657 0.89695 3.3476 0.77876 1.1103-0.11102 1.9223-0.75238 2.2603-1.0335 0.06142 0.0132 0.21218 0.0504 0.52452 0.15968 0.30594 0.10705 0.44788 0.17132 0.5054 0.19947 0.08886 0.42993 0.32867 1.4383 1.1281 2.218 0.85035 0.8293 1.8626 1.1968 3.1011 1.4795 1.2385 0.28269 2.309 0.39212 3.4349 0.0139 1.0576-0.35524 1.708-1.1606 1.9751-1.51 0.06531-6.7e-4 0.22321 3e-3 0.54622 0.0393 0.32516 0.0366 0.47823 0.0687 0.54054 0.0837 0.18301 0.40066 0.63728 1.3298 1.5885 1.911 1.0136 0.61929 2.0834 0.75086 3.3538 0.75086 1.2704 0 2.3371-0.13157 3.3507-0.75086 0.95124-0.5812 1.4055-1.5103 1.5885-1.911 0.0615-0.0148 0.21432-0.0466 0.54364-0.0837 0.32511-0.0366 0.48171-0.04 0.54622-0.0393 0.26709 0.34944 0.91446 1.1548 1.972 1.51 1.126 0.37822 2.199 0.26879 3.4375-0.0139 1.2385-0.28269 2.2513-0.6502 3.1016-1.4795 0.79892-0.77914 1.0361-1.7865 1.125-2.2169 0.05559-0.0271 0.19544-0.091 0.5085-0.20051 0.30832-0.10788 0.45922-0.14597 0.52142-0.15968 0.33799 0.28115 1.1501 0.9225 2.2603 1.0335 1.1819 0.11818 2.2035-0.22756 3.3481-0.77876 1.1446-0.55121 2.0504-1.1344 2.6949-2.1322 0.60444-0.93572 0.60841-1.9662 0.59945-2.4071 0.05231-0.0429 0.18057-0.14121 0.45424-0.31316 0.27644-0.1737 0.41734-0.24481 0.47646-0.27234 0.3928 0.19911 1.3252 0.64099 2.4314 0.5023 1.1786-0.14777 2.097-0.70964 3.0902-1.5017 0.99323-0.79208 1.745-1.5623 2.1513-2.6784 0.38161-1.0483 0.15885-2.059 0.0522-2.4856 0.0387-0.0485 0.13754-0.16648 0.37104-0.39998 0.23361-0.23361 0.3528-0.33284 0.40204-0.37155 0.42618 0.10658 1.4378 0.33016 2.4867-0.0517 1.1161-0.40632 1.8832-1.1586 2.6753-2.1518s1.3565-1.9112 1.5043-3.0897c0.13874-1.1065-0.30277-2.0424-0.50178-2.435 0.0269-0.05673 0.0973-0.19476 0.27234-0.47336 0.17721-0.28203 0.27034-0.40344 0.30851-0.45114 0.4402 9e-3 1.4753-1.58e-4 2.4117-0.60513 0.99772-0.64449 1.581-1.5478 2.1322-2.6923 0.5512-1.1446 0.89385-2.1657 0.77566-3.3476-0.11102-1.1102-0.74932-1.9228-1.0304-2.2608 0.0142-0.06536 0.053-0.22053 0.15916-0.524 0.1067-0.30491 0.17416-0.45125 0.20413-0.5116 0.43188-0.0894 1.4361-0.32446 2.2138-1.1219 0.8293-0.85035 1.1968-1.8626 1.4795-3.1011 0.28269-1.2385 0.38909-2.309 0.0109-3.4349-0.35539-1.058-1.1594-1.7099-1.5084-1.9766 2e-5 -0.06056 3e-3 -0.21288 0.0403-0.54467 0.0369-0.3272 0.0685-0.47954 0.0827-0.54105 0.40014-0.18263 1.3279-0.63679 1.9094-1.5885 0.61929-1.0136 0.75344-2.0829 0.75344-3.3533 0-1.2704-0.13416-2.3371-0.75344-3.3507-0.58154-0.95179-1.5093-1.4084-1.9094-1.5911-0.0142-0.06152-0.0458-0.21386-0.0827-0.54105-0.0374-0.33179-0.0403-0.48411-0.0403-0.54467 0.34904-0.26674 1.153-0.91861 1.5084-1.9766 0.37822-1.126 0.27182-2.1964-0.0109-3.4349-0.28269-1.2385-0.6502-2.2508-1.4795-3.1011-0.77914-0.79892-1.7865-1.0361-2.2169-1.125-0.0271-0.05559-0.0915-0.19544-0.20103-0.5085-0.10619-0.30347-0.14493-0.45864-0.15916-0.524 0.28157-0.33876 0.91951-1.1517 1.0304-2.2608 0.11818-1.1819-0.22446-2.2004-0.77566-3.345s-1.1344-2.0504-2.1322-2.6949c-0.93791-0.60585-1.9753-0.61416-2.4143-0.60513-0.0406-0.04939-0.13587-0.17298-0.30902-0.44855-0.1725-0.27453-0.24265-0.41351-0.26975-0.47181 0.19849-0.39124 0.64127-1.3276 0.50229-2.436-0.14777-1.1786-0.71222-2.097-1.5043-3.0903-0.79208-0.99323-1.5592-1.7481-2.6753-2.1544-1.0477-0.38142-2.0575-0.15584-2.4846-0.04909-0.0531-0.04118-0.17643-0.14336-0.40411-0.37104-0.23348-0.23348-0.33227-0.35274-0.37104-0.40204 0.10658-0.42618 0.33016-1.4378-0.0517-2.4867-0.40632-1.1161-1.1586-1.8863-2.1518-2.6784-0.99323-0.79208-1.9117-1.3534-3.0902-1.5012-1.1073-0.13884-2.0426 0.303-2.4345 0.50178-0.05673-0.02692-0.19476-0.09728-0.47336-0.27234-0.27366-0.17195-0.40193-0.27024-0.45424-0.31316 0.0088-0.44183 0.0043-1.4723-0.59945-2.4071-0.64449-0.99772-1.5503-1.581-2.6949-2.1322-1.1446-0.5512-2.1662-0.89437-3.3481-0.77618-1.1102 0.11102-1.9223 0.74984-2.2603 1.0309-0.0622-0.01371-0.2131-0.05128-0.52142-0.15916-0.31306-0.10954-0.45291-0.17392-0.5085-0.20102-0.08893-0.43039-0.32607-1.4378-1.125-2.2169-0.85035-0.8293-1.8626-1.1968-3.1011-1.4795-1.2385-0.28269-2.3121-0.39216-3.438-0.01395-1.0575 0.35523-1.7049 1.1605-1.972 1.51-0.06451 7.25e-4 -0.22111-0.0026-0.54622-0.03927-0.32932-0.03711-0.48213-0.06891-0.54364-0.08372-0.18301-0.40066-0.63729-1.3298-1.5885-1.911-1.0136-0.61928-2.0803-0.75086-3.3507-0.75086zm-0.0021 7.7365c1.4635-1e-6 2.9099 0.0732 4.3362 0.21342 0.18004 0.02923 0.36327 0.05574 0.5519 0.077 0.19961 0.02249 0.39429 0.03805 0.58653 0.04961 2.862 0.35705 5.6367 0.9916 8.2982 1.8738 0.20826 0.0878 0.42171 0.17216 0.64596 0.25063 0.23248 0.08135 0.46032 0.15074 0.68575 0.21342 2.641 0.97182 5.1622 2.1901 7.5344 3.6292 0.18784 0.13569 0.38168 0.26925 0.58808 0.39894 0.19446 0.12219 0.38724 0.23288 0.57929 0.33796 2.38 1.5488 4.5987 3.3236 6.627 5.2937 0.13867 0.1555 0.28245 0.31035 0.43667 0.46457s0.30907 0.298 0.46457 0.43667c1.9696 2.0277 3.7442 4.2457 5.2927 6.6249 0.1054 0.19272 0.21638 0.3857 0.339 0.58084 0.13001 0.20691 0.26358 0.40188 0.39946 0.59014 1.4383 2.3712 2.6567 4.8907 3.6282 7.5303 0.0628 0.22625 0.13229 0.45447 0.21394 0.68781 0.0787 0.22479 0.16311 0.4393 0.25115 0.64802 0.88224 2.6621 1.517 5.4376 1.8738 8.3003 0.0115 0.19106 0.0267 0.38457 0.0491 0.58291 0.0213 0.18881 0.0477 0.3718 0.077 0.5519 0.14011 1.4256 0.21291 2.8708 0.21291 4.3336 0 1.4649-0.0729 2.9127-0.21343 4.3403-0.029 0.17921-0.0553 0.36109-0.0765 0.5488-0.0221 0.19654-0.0375 0.38835-0.0491 0.57774-0.35744 2.8689-0.99334 5.6504-1.8784 8.3178-0.0862 0.2051-0.16932 0.41506-0.2465 0.63562-0.08 0.22874-0.14833 0.45298-0.21032 0.67489-0.97422 2.6492-2.1968 5.1778-3.6411 7.5566-6.4e-4 0.0011-1e-3 2e-3 -2e-3 0.0031-0.13181 0.18343-0.26178 0.3726-0.38809 0.57361-0.11872 0.18895-0.22658 0.37623-0.32918 0.56276-1.5559 2.3928-3.3402 4.6226-5.3216 6.6601-0.14906 0.13374-0.29755 0.27223-0.44545 0.42013-0.1488 0.1488-0.28786 0.29767-0.4222 0.44752-2.0308 1.9746-4.2529 3.7532-6.6368 5.3051-0.1936 0.10579-0.38791 0.21737-0.58394 0.34055-0.20785 0.1306-0.40319 0.26484-0.59221 0.40153-2.368 1.4363-4.8842 2.6533-7.52 3.6241-0.22875 0.0633-0.46008 0.13342-0.69608 0.216-0.22705 0.0795-0.44305 0.16506-0.65371 0.25425-2.6679 0.88384-5.4496 1.5187-8.3189 1.8748-0.18302 0.0116-0.36842 0.0267-0.55811 0.0481-0.18404 0.0207-0.36312 0.0456-0.53898 0.0739-1.4304 0.14108-2.8812 0.21446-4.3491 0.21446-1.4677 0-2.9178-0.0729-4.3481-0.21394-0.17589-0.0283-0.3544-0.0537-0.53847-0.0744-0.19023-0.0214-0.37614-0.0364-0.55966-0.0481-2.8683-0.35601-5.6492-0.99086-8.3163-1.8743-0.21112-0.0894-0.42767-0.17513-0.65526-0.25477-0.23671-0.0828-0.46873-0.15306-0.69815-0.21652-2.6351-0.97065-5.1504-2.1875-7.5179-3.6236-0.18903-0.13669-0.38436-0.27093-0.59221-0.40153-0.19712-0.12386-0.39253-0.23582-0.58704-0.3421-2.3824-1.5512-4.603-3.3291-6.6327-5.3025-0.13473-0.15019-0.27409-0.29942-0.42323-0.44855-0.14829-0.14829-0.29703-0.28711-0.44648-0.42116-1.9753-2.0314-3.7543-4.2542-5.3067-6.6389-0.10553-0.1932-0.21701-0.38713-0.34003-0.58291-0.13112-0.20867-0.26582-0.40509-0.40308-0.5948-1.4357-2.3674-2.6521-4.8829-3.6225-7.5179-0.0633-0.2286-0.13348-0.45973-0.21601-0.69556-0.07945-0.22705-0.16506-0.44305-0.25425-0.65371-0.8834-2.6665-1.518-5.4466-1.8743-8.3142-0.01164-0.1847-0.027-0.37178-0.04858-0.56327-0.0207-0.18368-0.04565-0.3619-0.0739-0.53744-0.14123-1.4313-0.21497-2.8829-0.21497-4.3517 0-1.4666 0.07363-2.9157 0.21446-4.345 0.02846-0.17644 0.05359-0.35576 0.07441-0.54054 0.02178-0.19329 0.03693-0.38207 0.04858-0.56844 0.35562-2.8613 0.98863-5.6356 1.8691-8.2967 0.09109-0.21432 0.17847-0.43477 0.25942-0.66611 0.08413-0.24044 0.1555-0.47555 0.21962-0.70848 0.96776-2.6256 2.1797-5.1322 3.6096-7.492 0.1405-0.1935 0.27832-0.39437 0.41238-0.60772 0.1269-0.20197 0.24158-0.40159 0.34985-0.601 1.545-2.3712 3.3142-4.5821 5.2777-6.6037 0.15591-0.13898 0.31099-0.28308 0.4656-0.4377 0.15465-0.15465 0.29856-0.31018 0.4377-0.46612 2.027-1.9689 4.2445-3.742 6.6229-5.2901 0.19304-0.1056 0.38678-0.21712 0.58239-0.34003 0.2064-0.12969 0.40023-0.26326 0.58808-0.39894 2.3717-1.4388 4.892-2.657 7.5324-3.6287 0.2261-0.06282 0.45463-0.13235 0.68781-0.21394 0.22486-0.07868 0.43872-0.16359 0.6475-0.25166 2.6606-0.88176 5.4346-1.5158 8.2956-1.8728 0.19274-0.01155 0.38793-0.02706 0.58808-0.04961 0.18881-0.02127 0.3717-0.04773 0.5519-0.077 1.4259-0.14016 2.8715-0.21342 4.3346-0.21342z"
       filter="url(#c)"
       stroke="#160d1d"
       stroke-width="2.1167"
       id="path1857" />
    <path
       d="m 70.083556,35.747512 q 13.476797,0 18.769665,10.096478 1.690161,3.647186 1.690161,8.006019 0,10.007523 -10.096479,15.656213 -4.759134,2.713151 -8.40632,6.004514 -1.156424,1.556726 -2.134938,4.091965 -1.512248,1.912549 -3.55823,1.912549 -2.668673,0 -3.869576,-3.291363 l -0.133433,-0.84508 q 0,-3.157929 4.670177,-8.272885 4.180921,-3.736142 11.430815,-7.961541 3.825098,-2.535239 3.825098,-7.160939 v -0.400301 q 0,-9.562744 -12.453807,-9.562744 h -0.177912 q -10.986035,0 -13.476797,4.892567 -2.045983,4.047487 -5.24839,4.047487 -0.355823,0 -0.667168,-0.04448 -3.113451,-0.578212 -3.113451,-3.825097 v -0.400299 q 0.177911,-3.558231 5.292867,-8.673187 5.203912,-4.269876 17.657718,-4.269876 z m -4.091965,54.307491 q 3.914053,0 5.87108,4.314354 l 0.22239,1.556726 q 0,3.825102 -4.670177,5.515267 l -1.423292,0.26686 q -6.137948,-1.11195 -6.137948,-5.782128 v -0.08896 q 0,-4.047487 4.803611,-5.515257 z"
       id="path1333"
       style="font-size:91.0907px;font-family:Stanberry;-inkscape-font-specification:Stanberry;stroke-width:0.47443" />
  </g>
</svg>
