<?xml version="1.0" standalone="no"?>
<!DOCTYPE svg PUBLIC "-//W3C//DTD SVG 20010904//EN"
 "http://www.w3.org/TR/2001/REC-SVG-20010904/DTD/svg10.dtd">
<svg version="1.0" xmlns="http://www.w3.org/2000/svg"
 width="470.000000pt" height="470.000000pt" viewBox="0 0 470.000000 470.000000"
 preserveAspectRatio="xMidYMid meet">
<metadata>
Created by potrace 1.14, written by Peter Selinger 2001-2017
</metadata>
<g transform="translate(0.000000,470.000000) scale(0.100000,-0.100000)"
fill="#000000" stroke="none">
<path d="M3092 4504 c-84 -50 -107 -154 -59 -269 l25 -60 -41 -15 c-42 -16
-42 -16 -53 10 -30 69 -142 123 -255 123 -43 0 -67 -6 -101 -26 l-45 -26 -24
26 c-42 45 -95 63 -189 63 -94 0 -147 -18 -189 -63 l-24 -26 -45 26 c-54 32
-127 35 -215 9 -63 -18 -133 -73 -143 -111 -5 -22 -7 -23 -40 -9 -111 47 -295
-35 -339 -151 l-17 -44 -48 6 c-120 14 -280 -124 -280 -240 0 -37 0 -37 -43
-37 -112 0 -248 -163 -234 -281 l6 -47 -44 -17 c-116 -44 -198 -228 -151 -339
14 -33 13 -35 -9 -40 -57 -14 -109 -106 -129 -227 -4 -22 -61 -119 -158 -265
-83 -126 -159 -247 -169 -269 -32 -68 -20 -144 30 -199 69 -76 198 -74 270 3
l27 28 0 -51 c2 -112 65 -236 129 -252 22 -5 23 -7 9 -40 -47 -111 35 -295
151 -339 l44 -17 -6 -48 c-14 -120 124 -280 240 -280 36 0 37 -1 37 -37 0 -82
72 -171 179 -221 42 -19 63 -23 101 -19 l48 6 17 -44 c44 -116 228 -198 339
-151 33 14 35 13 40 -9 10 -38 80 -93 143 -111 88 -26 161 -23 215 9 l45 26
24 -26 c42 -45 95 -63 189 -63 94 0 147 18 189 63 l24 26 45 -26 c57 -34 138
-35 230 -4 l64 22 291 -41 c161 -23 309 -39 330 -37 53 7 113 49 137 97 55
108 -10 242 -129 266 l-34 7 34 18 c91 47 159 137 159 212 0 36 1 37 37 37 82
0 171 72 221 179 19 42 23 63 19 101 l-6 48 44 17 c116 44 198 228 151 339
-14 33 -13 35 9 40 38 10 93 80 111 143 26 88 23 161 -9 215 l-26 45 26 24
c45 42 63 95 63 189 0 94 -18 147 -63 189 l-26 24 26 45 c32 54 35 127 9 215
-18 63 -73 133 -111 143 -22 5 -23 7 -9 40 47 111 -35 295 -151 339 l-44 17 6
47 c14 118 -122 281 -234 281 -43 0 -43 0 -43 35 0 57 -27 106 -89 165 -58 55
-58 56 -146 285 -48 127 -97 247 -109 268 -46 85 -166 114 -254 61z m162 -76
c32 -29 349 -844 349 -896 -1 -42 -24 -76 -62 -92 -27 -11 -91 -5 -463 39
-238 28 -450 56 -470 61 -75 21 -101 101 -52 159 14 18 39 33 57 36 18 3 190
-15 382 -39 193 -24 351 -44 351 -43 1 1 -56 151 -127 332 -84 216 -129 343
-129 368 0 83 103 129 164 75z m-783 -218 c17 -19 34 -41 40 -47 19 -24 79
-15 116 17 27 24 43 30 81 30 97 0 174 -42 190 -103 6 -24 17 -35 46 -46 34
-13 40 -12 77 8 21 12 47 21 55 19 11 -2 34 -48 65 -128 27 -69 49 -128 49
-133 0 -4 -39 12 -87 36 -474 236 -1032 236 -1508 -1 -321 -160 -594 -430
-753 -749 l-41 -81 -41 10 c-31 8 -50 7 -85 -5 -43 -13 -46 -13 -55 4 -17 31
-11 74 21 138 35 69 60 90 117 98 32 4 43 12 59 40 18 31 19 39 7 73 -17 50
-5 94 42 148 47 55 87 76 133 68 30 -5 40 -1 67 25 27 27 31 36 27 68 -7 48
14 88 69 135 54 47 98 59 148 42 34 -12 42 -11 73 7 28 16 36 27 40 59 8 57
29 82 98 117 73 37 108 39 160 9 35 -19 41 -20 75 -7 29 11 40 22 46 46 16 61
93 103 190 103 38 0 54 -6 81 -30 25 -21 45 -30 70 -30 37 0 40 3 78 53 30 40
53 47 142 44 76 -2 80 -3 108 -37z m59 -376 c51 -16 53 -18 30 -26 -32 -12
-78 -55 -97 -92 -8 -15 -15 -51 -16 -78 l-2 -49 -69 -44 c-124 -80 -238 -105
-321 -71 -40 17 -55 42 -55 91 0 90 126 242 235 283 42 16 227 8 295 -14z
m495 -29 c67 -34 68 -35 30 -31 -22 3 -70 8 -107 12 -38 4 -68 10 -68 13 0 8
52 40 65 41 6 0 42 -16 80 -35z m744 -210 c40 -20 99 -92 111 -133 6 -24 5
-46 -4 -72 -12 -34 -11 -42 7 -73 16 -28 27 -36 59 -40 57 -8 82 -29 117 -98
37 -73 39 -108 9 -160 -19 -35 -20 -41 -7 -75 11 -29 22 -40 46 -46 61 -16
103 -93 103 -190 0 -38 -6 -54 -30 -81 -32 -37 -41 -97 -17 -116 6 -6 28 -23
47 -40 l35 -29 0 -92 0 -92 -35 -29 c-19 -17 -41 -34 -47 -40 -24 -19 -15 -79
17 -116 24 -27 30 -43 30 -81 0 -97 -42 -174 -103 -190 -24 -6 -35 -17 -46
-46 -13 -34 -12 -40 7 -75 30 -52 28 -87 -9 -160 -35 -69 -60 -90 -117 -98
-32 -4 -43 -12 -59 -40 -18 -31 -19 -39 -7 -73 17 -50 5 -94 -42 -148 -47 -55
-87 -76 -135 -69 -32 4 -41 0 -68 -27 -26 -27 -30 -37 -25 -67 8 -46 -13 -86
-68 -133 -54 -47 -98 -59 -149 -42 -34 12 -41 11 -71 -7 -18 -10 -36 -25 -40
-31 -5 -10 -29 -9 -105 1 -54 7 -105 14 -113 16 -8 2 19 20 60 41 41 21 118
67 170 102 704 467 951 1398 573 2157 -49 99 -119 212 -170 274 l-34 42 16 56
c11 36 14 70 10 95 -7 40 -6 40 25 40 17 0 44 -7 59 -15z m-743 -195 c439 -52
496 -56 538 -40 23 8 29 5 59 -33 157 -193 279 -485 318 -759 10 -71 9 -95 -6
-168 -20 -98 -37 -136 -65 -145 -31 -10 -56 11 -109 88 -60 88 -194 249 -249
299 -51 46 -164 84 -219 73 -48 -9 -82 -27 -112 -59 -23 -25 -24 -28 -8 -43
13 -13 43 -18 133 -22 115 -6 116 -6 145 -39 21 -24 29 -42 29 -71 0 -36 -6
-44 -82 -113 -108 -97 -163 -136 -203 -144 -68 -12 -132 48 -210 196 -51 98
-137 200 -168 200 -27 0 -20 -24 40 -138 31 -59 71 -136 89 -172 17 -36 40
-73 51 -82 38 -35 96 -51 178 -51 136 1 140 -28 21 -142 -92 -88 -106 -112
-161 -265 -68 -191 -254 -536 -363 -672 -109 -138 -220 -174 -290 -94 -23 26
-32 49 -40 105 -9 59 -23 94 -83 204 -158 285 -160 295 -110 473 17 61 31 125
31 144 0 47 -33 98 -75 116 -47 19 -74 18 -122 -8 -145 -79 -188 -99 -273
-126 -117 -37 -281 -66 -323 -56 -44 9 -82 38 -97 73 -10 26 -9 33 9 58 26 36
41 104 31 147 -4 18 -22 60 -40 93 -27 48 -32 66 -26 95 19 101 136 207 336
305 74 36 159 84 187 105 63 46 92 58 142 58 57 0 214 -42 316 -85 81 -34 99
-38 175 -37 131 0 306 47 358 94 54 52 3 144 -99 177 -88 28 -89 79 -2 137 83
55 103 75 103 101 0 66 -85 83 -163 33 -48 -30 -65 -57 -87 -138 -14 -54 -41
-82 -80 -82 -41 0 -51 24 -43 104 l6 66 -37 15 c-34 14 -43 14 -89 1 -116 -35
-242 -135 -296 -235 -44 -83 -73 -116 -127 -142 -66 -32 -118 -22 -253 46
-125 62 -151 83 -151 121 0 39 47 76 157 124 54 24 103 47 110 52 9 7 3 21
-21 53 -40 51 -50 84 -36 119 17 45 61 63 173 70 133 9 586 65 646 80 36 9 54
9 81 -1 19 -7 225 -35 456 -63z m-2231 -460 c8 -6 113 -193 234 -414 157 -285
221 -412 221 -434 0 -43 -44 -91 -90 -98 -69 -10 -82 8 -258 333 -89 164 -168
307 -175 317 -12 17 -32 -10 -201 -270 -103 -159 -201 -301 -217 -316 -57 -54
-146 -28 -165 48 -4 15 -3 39 3 53 11 31 466 725 497 760 43 48 108 57 151 21z
m-116 -855 c132 -818 842 -1425 1665 -1425 l104 0 6 -31 c3 -17 15 -44 27 -60
24 -34 20 -56 -17 -90 -23 -22 -34 -24 -116 -24 l-90 0 -29 35 c-17 19 -34 41
-40 48 -19 23 -79 14 -116 -18 -27 -24 -43 -30 -81 -30 -97 0 -174 42 -190
103 -6 24 -17 35 -46 46 -34 13 -40 12 -75 -7 -52 -30 -87 -28 -160 9 -69 35
-90 60 -98 117 -4 32 -12 43 -40 59 -31 18 -39 19 -73 7 -51 -18 -96 -4 -152
46 -52 46 -72 86 -65 132 4 27 -1 39 -25 64 -26 28 -35 31 -67 27 -48 -7 -88
14 -135 69 -47 54 -59 98 -42 148 12 34 11 42 -7 73 -16 28 -27 36 -59 40 -57
8 -82 29 -117 98 -37 73 -39 108 -9 160 19 35 20 41 7 75 -11 29 -22 40 -46
46 -61 16 -103 93 -103 190 0 38 6 54 30 81 34 39 41 95 15 121 -19 19 -17 23
64 145 l56 84 7 -134 c3 -74 11 -165 17 -204z m2532 -624 c23 -24 29 -38 29
-73 0 -40 -14 -62 -216 -338 l-215 -295 73 -11 c40 -6 204 -28 363 -50 l290
-38 33 -32 c45 -45 45 -93 -2 -140 -19 -19 -42 -34 -51 -34 -23 0 -883 119
-913 127 -33 8 -72 59 -72 96 0 18 9 46 19 64 28 45 489 683 515 712 45 49
104 54 147 12z"/>
</g>
</svg>
